<svg width="156" height="17" viewBox="0 0 156 17" fill="none" xmlns="http://www.w3.org/2000/svg">
<path d="M5.98438 12.1875C9.24219 12.1875 11.2656 9.94531 11.2656 6.36719V6.35156C11.2656 2.78125 9.23438 0.539062 5.98438 0.539062C2.74219 0.539062 0.703125 2.77344 0.703125 6.35156V6.36719C0.703125 9.95312 2.73438 12.1875 5.98438 12.1875ZM5.98438 10.6406C3.84375 10.6406 2.48438 8.99219 2.48438 6.36719V6.35156C2.48438 3.72656 3.85156 2.08594 5.98438 2.08594C8.125 2.08594 9.47656 3.73438 9.47656 6.35156V6.36719C9.47656 8.96875 8.14844 10.6406 5.98438 10.6406ZM18.4513 12.1641C20.8731 12.1641 22.3653 10.5781 22.3653 8V7.98438C22.3653 5.58594 20.9434 4.04688 18.7247 4.04688C17.4278 4.04688 16.4278 4.57031 15.8966 5.54688H15.8575L15.8731 5.4375C16.1934 3.19531 16.8966 2.24219 19.0528 2.16406L19.7716 2.13281C20.7169 2.10156 21.5528 1.92188 21.8263 1.70312V0.304688C21.3653 0.53125 20.5216 0.679688 19.6778 0.710938L18.9434 0.734375C15.8263 0.851562 14.4981 2.6875 14.4981 7.23438V7.25C14.4981 10.4844 15.8809 12.1641 18.4513 12.1641ZM18.4356 10.75C17.0294 10.75 16.2247 9.76562 16.2247 8.02344V8.00781C16.2247 6.35938 17.0372 5.42969 18.4356 5.42969C19.8263 5.42969 20.6388 6.35938 20.6388 8.00781V8.02344C20.6388 9.76562 19.8263 10.75 18.4356 10.75ZM25.7463 14.7344H27.4338V10.6172H27.4728C27.9572 11.5703 28.9025 12.1641 30.0666 12.1641C32.1291 12.1641 33.4806 10.5156 33.4806 7.89844V7.89062C33.4806 5.26562 32.1369 3.625 30.0431 3.625C28.8713 3.625 27.965 4.21875 27.4728 5.19531H27.4338V3.78125H25.7463V14.7344ZM29.6056 10.7109C28.3322 10.7109 27.4259 9.60156 27.4259 7.89844V7.89062C27.4259 6.17969 28.3244 5.07031 29.6056 5.07031C30.9338 5.07031 31.7619 6.14062 31.7619 7.89062V7.89844C31.7619 9.63281 30.9338 10.7109 29.6056 10.7109ZM39.2678 12.1484C40.3616 12.1484 41.3069 11.5859 41.7834 10.7031H41.8225V12H43.51V6.33594C43.51 4.6875 42.2366 3.625 40.2287 3.625C38.2053 3.625 36.9787 4.71094 36.8616 6.125L36.8537 6.21094H38.4475L38.4631 6.14062C38.6037 5.48438 39.2053 5.02344 40.1819 5.02344C41.2287 5.02344 41.8225 5.57031 41.8225 6.47656V7.09375L39.5803 7.22656C37.635 7.34375 36.5256 8.21875 36.5256 9.64844V9.66406C36.5256 11.1406 37.6272 12.1484 39.2678 12.1484ZM38.2287 9.625V9.60938C38.2287 8.91406 38.7912 8.46875 39.8069 8.40625L41.8225 8.28125V8.92188C41.8225 9.99219 40.9162 10.7969 39.7287 10.7969C38.8225 10.7969 38.2287 10.3438 38.2287 9.625ZM53.3363 3.78125H46.5003V5.125H49.0706V12H50.7659V5.125H53.3363V3.78125ZM61.8812 12H63.5687V3.78125H61.8812V7.09375H58.1781V3.78125H56.4906V12H58.1781V8.42969H61.8812V12ZM67.3012 12H70.5512C72.4497 12 73.6762 10.8984 73.6762 9.16406V9.14844C73.6762 7.42188 72.4497 6.32031 70.5512 6.32031H68.9887V3.78125H67.3012V12ZM74.6528 12H76.3481V3.78125H74.6528V12ZM70.3872 7.65625C71.3403 7.65625 71.9497 8.24219 71.9497 9.14844V9.16406C71.9497 10.0703 71.3481 10.6641 70.3872 10.6641H68.9887V7.65625H70.3872ZM83.7525 2.88281C85.3775 2.88281 86.3541 1.90625 86.3541 0.554688V0.507812H85.0181V0.5625C85.0181 1.24219 84.5572 1.82031 83.7603 1.82031C82.9322 1.82031 82.4947 1.24219 82.4947 0.5625V0.507812H81.1666V0.554688C81.1666 1.90625 82.1431 2.88281 83.7525 2.88281ZM80.0806 12H81.7447L85.5181 6.22656H85.5884V12H87.2681V3.78125H85.6041L81.8306 9.53125H81.7525V3.78125H80.0806V12ZM99.1316 12.1641C101.147 12.1641 102.483 11.1406 102.483 9.60938V9.59375C102.483 8.63281 101.889 7.97656 100.803 7.75781V7.69531C101.686 7.49219 102.257 6.79688 102.257 5.91406V5.89844C102.257 4.49219 101.1 3.625 99.2097 3.625C97.3581 3.625 96.1472 4.5 95.9519 5.96094L95.9441 6.02344H97.5534L97.5612 5.96875C97.6862 5.34375 98.3034 4.96094 99.1862 4.96094C100.077 4.96094 100.608 5.375 100.608 6.07812V6.09375C100.608 6.82812 100.1 7.20312 99.1081 7.20312H97.9284V8.42969H99.1159C100.257 8.42969 100.803 8.80469 100.803 9.59375V9.60938C100.803 10.3594 100.163 10.8203 99.1237 10.8203C98.1941 10.8203 97.5847 10.4609 97.3972 9.79688L97.3737 9.71875H95.7175L95.7253 9.78906C95.8894 11.2422 97.2097 12.1641 99.1316 12.1641ZM105.887 12H109.669C111.45 12 112.559 11.0781 112.559 9.64062V9.625C112.559 8.61719 111.856 7.88281 110.794 7.74219V7.67969C111.583 7.53125 112.192 6.75781 112.192 5.90625V5.89062C112.192 4.58594 111.223 3.78125 109.622 3.78125H105.887V12ZM107.559 7.17188V5.03125H109.27C110.083 5.03125 110.52 5.39844 110.52 6.07812V6.09375C110.52 6.82031 110.052 7.17188 109.098 7.17188H107.559ZM107.559 10.75V8.39844H109.161C110.27 8.39844 110.825 8.76562 110.825 9.55469V9.57031C110.825 10.3516 110.309 10.75 109.356 10.75H107.559ZM119.511 12.1641C121.862 12.1641 123.409 10.5391 123.409 7.89062V7.875C123.409 5.24219 121.847 3.625 119.511 3.625C117.175 3.625 115.612 5.25 115.612 7.875V7.89062C115.612 10.5312 117.151 12.1641 119.511 12.1641ZM119.518 10.75C118.198 10.75 117.339 9.71094 117.339 7.89062V7.875C117.339 6.07812 118.206 5.03906 119.511 5.03906C120.823 5.03906 121.69 6.07812 121.69 7.875V7.89062C121.69 9.70312 120.839 10.75 119.518 10.75ZM132.165 12H133.853V3.78125H132.165V7.09375H128.462V3.78125H126.774V12H128.462V8.42969H132.165V12ZM141.116 12.1641C143.468 12.1641 145.015 10.5391 145.015 7.89062V7.875C145.015 5.24219 143.452 3.625 141.116 3.625C138.78 3.625 137.218 5.25 137.218 7.875V7.89062C137.218 10.5312 138.757 12.1641 141.116 12.1641ZM141.124 10.75C139.804 10.75 138.944 9.71094 138.944 7.89062V7.875C138.944 6.07812 139.812 5.03906 141.116 5.03906C142.429 5.03906 143.296 6.07812 143.296 7.875V7.89062C143.296 9.70312 142.444 10.75 141.124 10.75ZM150.364 8.33594L153.388 12H155.474L151.872 7.64062L155.333 3.78125H153.341L150.364 7.17188H150.068V3.78125H148.38V12H150.068V8.33594H150.364Z" fill="white"/>
<path d="M0 14.8984H155.653V16.0312H0V14.8984Z" fill="white"/>
</svg>
